<svg id="icons" viewBox="0 0 80 80" xmlns="http://www.w3.org/2000/svg"><path d=" M 28.43 2.62 C 39.24 -0.50 51.45 0.84 61.01 6.91 C 71.75 13.42 78.78 25.20 80.00 37.64 L 80.00 42.57 C 78.98 59.34 66.50 74.76 50.08 78.69 C 49.39 72.00 51.49 64.61 47.68 58.58 C 53.37 57.87 59.63 55.88 62.72 50.67 C 66.49 43.78 66.75 34.60 61.73 28.24 C 62.01 24.65 63.03 20.25 60.41 17.27 C 56.59 17.70 53.25 19.68 49.95 21.49 C 43.37 19.92 36.53 19.99 29.94 21.48 C 26.53 19.37 22.80 17.80 18.83 17.13 C 17.81 20.72 17.48 24.47 18.23 28.15 C 11.57 36.76 13.63 52.26 24.35 56.61 C 26.86 57.70 29.58 58.12 32.25 58.67 C 31.40 60.53 30.58 62.41 29.80 64.30 C 27.41 64.66 24.82 65.57 22.49 64.49 C 19.05 62.64 17.75 58.10 13.88 56.89 C 12.93 56.82 11.03 56.69 10.08 56.62 C 12.05 58.77 14.37 60.68 15.74 63.30 C 16.99 65.31 17.85 67.91 20.22 68.88 C 23.29 70.28 26.78 69.85 30.06 69.77 C 30.06 72.74 30.06 75.70 30.02 78.67 C 13.80 74.87 1.46 59.90 0.00 43.42 L 0.00 38.29 C 0.95 22.03 12.78 7.15 28.43 2.62 Z" /></svg>
